<svg xmlns="http://www.w3.org/2000/svg" width="32" height="32" viewBox="0 0 32 32">
  <rect width="32" height="32" rx="6" fill="#4facfe"/>
  <rect x="6" y="8" width="20" height="16" rx="2" fill="white"/>
  <rect x="8" y="6" width="2" height="6" rx="1" fill="white"/>
  <rect x="14" y="6" width="2" height="6" rx="1" fill="white"/>
  <rect x="20" y="6" width="2" height="6" rx="1" fill="white"/>
  <rect x="8" y="12" width="2" height="2" rx="1" fill="#4facfe"/>
  <rect x="12" y="12" width="2" height="2" rx="1" fill="#4facfe"/>
  <rect x="16" y="12" width="2" height="2" rx="1" fill="#4facfe"/>
  <rect x="20" y="12" width="2" height="2" rx="1" fill="#4facfe"/>
  <rect x="8" y="16" width="2" height="2" rx="1" fill="#4facfe"/>
  <rect x="12" y="16" width="2" height="2" rx="1" fill="#4facfe"/>
  <rect x="16" y="16" width="2" height="2" rx="1" fill="#4facfe"/>
  <rect x="20" y="16" width="2" height="2" rx="1" fill="#4facfe"/>
</svg>